<svg xmlns="http://www.w3.org/2000/svg" viewBox="0 0 128 128">
  <rect width="128" height="128" rx="24" fill="#f8f5ef"/>
  <path fill="#344b55" transform="translate(26.246 88.432) scale(0.97943)" d="M9.234 21.000L1.125 21.000L12.109 -41.906L4.203 -41.906L4.594 -44.328L12.891 -46.250L13.484 -49.531C14.785 -56.883 16.973 -62.281 20.047 -65.719C23.117 -69.164 27.273 -70.891 32.516 -70.891C35.023 -70.891 37.289 -70.582 39.312 -69.969L37.594 -60.281L35.203 -60.281L34.281 -65.969C33.332 -66.656 31.961 -67.000 30.172 -67.000C28.191 -67.000 26.629 -66.129 25.484 -64.391C24.348 -62.648 23.289 -59.109 22.312 -53.766L20.906 -46.000L31.109 -46.000L30.422 -41.906L20.219 -41.906ZM59.797 -6.906C57.160 -4.457 54.195 -2.523 50.906 -1.109C47.613 0.297 44.488 1.000 41.531 1.000C36.289 1.000 32.238 -0.504 29.375 -3.516C26.508 -6.535 25.078 -10.719 25.078 -16.062C25.078 -21.707 26.211 -26.859 28.484 -31.516C30.766 -36.180 34.016 -39.926 38.234 -42.750C42.453 -45.582 46.875 -47.000 51.500 -47.000C53.801 -47.000 56.254 -46.754 58.859 -46.266C61.461 -45.773 63.613 -45.176 65.312 -44.469L63.109 -31.688L60.422 -31.688L59.641 -40.172C57.598 -42.223 54.863 -43.250 51.438 -43.250C48.312 -43.250 45.391 -42.094 42.672 -39.781C39.961 -37.477 37.789 -34.258 36.156 -30.125C34.531 -26.000 33.719 -21.473 33.719 -16.547C33.719 -8.223 37.070 -4.062 43.781 -4.062C48.438 -4.062 53.285 -5.688 58.328 -8.938ZM75.969 -4.891C75.969 -3.297 75.406 -1.914 74.281 -0.750C73.156 0.414 71.750 1.000 70.062 1.000C68.363 1.000 66.953 0.414 65.828 -0.750C64.711 -1.914 64.156 -3.297 64.156 -4.891C64.156 -6.547 64.723 -7.941 65.859 -9.078C66.992 -10.211 68.395 -10.781 70.062 -10.781C71.719 -10.781 73.113 -10.211 74.250 -9.078C75.395 -7.941 75.969 -6.547 75.969 -4.891ZM85.000 0.000"/>
</svg>
